<?xml version="1.0" encoding="utf-8" ?><svg xmlns="http://www.w3.org/2000/svg" xmlns:xlink="http://www.w3.org/1999/xlink" width="1536" height="1024" viewBox="0 0 1536 1024"><path fill="#F9C449" d="M762.73 325.158C845.048 319.907 916.117 368.677 957.201 437.3C939.937 445.666 921.546 453.785 904.029 461.747C872.887 412.758 834.367 386.651 775.683 382.931C767.081 381.622 747.105 383.793 738.607 385.773C689.963 397.106 661.761 419.802 635.31 460.647C620.929 455.59 596.873 443.168 581.171 436.651C620.277 367.748 683.723 328.909 762.73 325.158Z"/><path fill="#FDED9A" d="M767.116 399.446C779.49 399.485 791.82 400.937 803.865 403.774C841.098 412.764 869.965 435.732 889.759 468.237C878.363 473.909 862.772 480.186 850.824 485.461C824.461 496.982 798.203 508.738 772.05 520.729C770.061 521.16 735.994 505.43 731.161 503.317C704.21 491.801 677.429 479.891 650.828 467.589C671.867 424.503 721.196 402.172 767.116 399.446Z"/><path fill="#407FAC" d="M973.523 571.227C990.629 571.713 1008.27 576.965 1019.98 589.827C1041.47 613.42 1039.1 646.194 1016.72 667.556L1038.76 695.002C1029.67 695.034 1020.27 695.205 1011.23 694.72C1008.24 691.642 1003.23 685.269 1000.34 681.789L998.593 679.591C998.446 679.567 982.074 683.595 978.344 683.867C896.434 689.835 883.312 576.584 973.523 571.227ZM984.734 659.785C981.849 656.234 978.45 652.255 975.735 648.641L966.267 637.227C974.768 637.166 983.722 636.951 992.183 637.059C994.54 639.982 997.904 644.419 1000.42 647.014C1001.49 644.828 1002.58 642.596 1003.5 640.345C1013.26 616.512 995.86 591.215 969.589 594.389C922.463 601.502 934.23 669.05 978.757 660.96C980.754 660.591 982.746 660.199 984.734 659.785Z"/><path fill="#F9C449" d="M671.457 571.22C721.695 573.042 750.825 619.459 719.481 663.525C709.484 677.58 688.886 682.779 672.182 684.164C656.23 683.892 641.257 680.27 628.965 669.413C606.999 650.011 604.28 612.459 624.365 590.75C636.793 577.317 653.569 571.93 671.457 571.22ZM677.635 660.317C689.345 658.045 698.931 649.654 702.736 638.347C706.541 627.039 703.979 614.559 696.027 605.666C688.075 596.774 675.959 592.84 664.302 595.367C646.548 599.215 635.198 616.639 638.852 634.438C642.506 652.237 659.802 663.779 677.635 660.317Z"/><path fill="#F9C449" d="M541.939 571.875C560.017 570.385 572.267 573.51 586.767 584.371L570.611 601.082C560.988 594.197 545.64 586.774 536.349 597.64C534.598 599.688 534.164 600.608 534.258 603.226C538.623 615.233 569.753 617.144 579.787 627.977C592.45 641.647 592.16 658.317 579.407 672.035C569.718 682.458 554.831 683.987 541.199 684.21C522.785 682.8 515.779 679.095 501.618 668.274C507.692 662.314 513.712 656.3 519.678 650.232L521.4 651.695C528.796 657.94 535.517 662.628 545.784 663.263C551.628 663.625 565.041 655.89 562.06 650.396C555.042 637.457 530.453 637.047 519.037 627.533C512.979 622.484 508.351 618.414 507.05 610.022C504.243 585.584 521.172 574.776 541.939 571.875Z"/><path fill="#407FAC" d="M574.607 449.01C589.755 454.338 614.834 465.983 629.204 473.174C623.86 485.718 618.047 501.349 616.77 515.072C615.979 523.572 616.548 532.197 615.405 541.055C613.639 542.727 613.021 542.188 610.029 542.29L554.506 542.342C553.776 505.841 559.391 481.648 574.607 449.01Z"/><path fill="#407FAC" d="M963.545 450.317C965.394 452.138 968.544 459.443 969.611 462.095C980.512 489.196 983.069 513.44 983.333 542.239L929.063 542.331C927.477 542.401 926.042 542.204 924.467 542.048C922.323 539.38 922.571 530.638 922.646 527.091C923.042 508.429 916.679 491.105 909.493 474.18C927.644 466.532 945.664 458.577 963.545 450.317Z"/><path fill="#F9C449" d="M757.527 573.87C766.509 573.758 775.492 573.763 784.474 573.886L784.462 659.497C799.735 659.739 815.618 659.502 830.939 659.488L830.989 681.447C807.043 680.978 781.648 681.402 757.592 681.416L757.527 573.87Z"/><path fill="#9CD8E2" d="M708.395 506.772C714.642 507.653 761.064 529.314 770.736 533.396C790.12 526.198 812.021 514.884 831.904 506.953C834.74 512.474 836.775 518.348 838.674 524.24C839.8 531.321 840.04 535.07 840.228 542.25L700.507 542.293C700.475 526.715 702.074 520.577 708.395 506.772Z"/><path fill="#6EB2D0" d="M644.202 479.108C655.277 482.622 683.462 495.83 695.542 500.982C690.519 510.379 687.147 518.629 686.759 529.339C686.663 531.992 686.485 540.584 685.514 542.226L682.687 542.39L631.04 542.443C631.062 516.218 633.414 503.159 644.202 479.108Z"/><path fill="#407FAC" d="M857.991 573.969L885.485 573.964L885.577 681.339C876.96 681.029 866.659 681.326 857.913 681.348L857.991 573.969Z"/><path fill="#6EB2D0" d="M893.898 480.113L895.244 480.453C905.708 495.295 907.567 524.967 908.18 542.307L859.313 542.276C857.026 542.379 856.697 542.491 854.571 541.805C853.23 539.667 853.001 524.679 851.674 519.683C849.386 511.073 848.804 509.639 844.907 501.66C861.402 494.857 877.736 487.673 893.898 480.113Z"/><path fill="#F9C449" d="M752.92 205.564C763.01 205.688 773.45 205.558 783.565 205.55C783.519 214.394 782.229 227.108 781.587 236.139C780.121 256.77 778.54 277.392 776.844 298.005C776.877 299.586 776.506 300.338 776.005 301.815C772.171 304.996 764.995 303.754 759.823 303.483C759.184 272.472 754.801 237.176 752.92 205.564Z"/><path fill="#F9C449" d="M673.753 221.324L675.292 221.411C679.004 225.318 701.354 302.138 704.123 311.381L688.894 316.713L685.54 310.074C672.908 283.339 659.703 257.877 646.721 231.438C654.868 228.015 665.316 224.463 673.753 221.324Z"/><path fill="#F9C449" d="M860.664 221.354C869.195 223.957 880.702 228.551 889.312 231.708C878.253 256.804 864.851 282.427 852.666 307.132L848.242 316.416C843.334 315.132 837.087 313.03 832.131 311.519C842.216 281.678 851.04 251.366 860.664 221.354Z"/><path fill="#F9C449" d="M581.389 269.861C586.126 274.078 597.462 288.987 601.91 294.607L639.19 341.719C635.093 345.153 630.977 348.564 626.842 351.951L620.791 346.474L558.652 289.248C566.358 282.936 573.939 276.472 581.389 269.861Z"/><path fill="#F9C449" d="M954.344 270.427C957.113 271.371 974.068 286.785 977.463 289.774C959.167 308.157 936.598 328.254 917.312 345.644L909.802 351.822C905.896 348.556 901.519 345.262 897.485 342.106C916.31 318.681 936.462 294.423 954.344 270.427Z"/><path fill="#F9C449" d="M1023 341.094C1026.85 343.043 1036.4 361.929 1039.03 366.806L962.437 399.494L957.08 401.53C954.231 397.241 951.027 392.773 948.08 388.518C973.145 373.378 999.1 357.971 1023 341.094Z"/><path fill="#F9C449" d="M512.459 340.145C517.121 342.611 521.972 345.588 526.322 348.584C546.457 362.448 568.846 374.676 588.633 388.869C585.686 393.721 582.71 401.596 576.552 399.656C550.381 388.612 523.649 375.626 497.541 365.247C501.519 357.745 507.832 347.03 512.459 340.145Z"/></svg>